<svg width="120" height="40" viewBox="0 0 120 40" fill="none" xmlns="http://www.w3.org/2000/svg">
<g clip-path="url(#clip0_70_565)">
<mask id="path-1-inside-1_70_565" fill="white">
<path d="M0 20C0 16.2828 0 14.4241 0.307436 12.8786C1.56994 6.53151 6.53151 1.56994 12.8786 0.307436C14.4241 0 16.2828 0 20 0H100C103.717 0 105.576 0 107.121 0.307436C113.468 1.56994 118.43 6.53151 119.693 12.8786C120 14.4241 120 16.2828 120 20C120 23.7172 120 25.5759 119.693 27.1214C118.43 33.4685 113.468 38.4301 107.121 39.6926C105.576 40 103.717 40 100 40H20C16.2828 40 14.4241 40 12.8786 39.6926C6.53151 38.4301 1.56994 33.4685 0.307436 27.1214C0 25.5759 0 23.7172 0 20Z"/>
</mask>
<path d="M0 20C0 16.2828 0 14.4241 0.307436 12.8786C1.56994 6.53151 6.53151 1.56994 12.8786 0.307436C14.4241 0 16.2828 0 20 0H100C103.717 0 105.576 0 107.121 0.307436C113.468 1.56994 118.43 6.53151 119.693 12.8786C120 14.4241 120 16.2828 120 20C120 23.7172 120 25.5759 119.693 27.1214C118.43 33.4685 113.468 38.4301 107.121 39.6926C105.576 40 103.717 40 100 40H20C16.2828 40 14.4241 40 12.8786 39.6926C6.53151 38.4301 1.56994 33.4685 0.307436 27.1214C0 25.5759 0 23.7172 0 20Z" fill="white"/>
<mask id="mask0_70_565" style="mask-type:alpha" maskUnits="userSpaceOnUse" x="8" y="8" width="24" height="24">
<path d="M11.75 20H28.25" stroke="#232323" stroke-width="1.6" stroke-linecap="round" stroke-linejoin="round"/>
</mask>
<g mask="url(#mask0_70_565)">
<rect x="8" y="8" width="24" height="24" fill="#E7EAEE"/>
</g>
<path d="M61.1953 13.5625V25H59.75V15.3672L56.8359 16.4297V15.125L60.9688 13.5625H61.1953Z" fill="#BEBFC7"/>
<mask id="mask1_70_565" style="mask-type:alpha" maskUnits="userSpaceOnUse" x="88" y="8" width="24" height="24">
<path fill-rule="evenodd" clip-rule="evenodd" d="M99.2022 27.346C99.2022 27.7878 99.5603 28.146 100.002 28.146C100.444 28.146 100.802 27.7878 100.802 27.346V20.7989H107.346C107.788 20.7989 108.146 20.4407 108.146 19.9989C108.146 19.557 107.788 19.1989 107.346 19.1989H100.802V12.654C100.802 12.2122 100.444 11.854 100.002 11.854C99.5603 11.854 99.2022 12.2122 99.2022 12.654V19.1989H92.6545C92.2127 19.1989 91.8545 19.557 91.8545 19.9989C91.8545 20.4407 92.2127 20.7989 92.6545 20.7989H99.2022V27.346Z" fill="#232323"/>
</mask>
<g mask="url(#mask1_70_565)">
<rect x="88" y="8" width="24" height="24" fill="#0058A4"/>
</g>
</g>
<path d="M-1 16C-1 6.61116 6.61116 -1 16 -1H104C113.389 -1 121 6.61116 121 16H119C119 7.71573 112.284 1 104 1H16C7.71573 1 1 7.71573 1 16H-1ZM121 24C121 33.3888 113.389 41 104 41H16C6.61116 41 -1 33.3888 -1 24H1C1 32.2843 7.71573 39 16 39H104C112.284 39 119 32.2843 119 24H121ZM16 41C6.61116 41 -1 33.3888 -1 24V16C-1 6.61116 6.61116 -1 16 -1V1C7.71573 1 1 7.71573 1 16V24C1 32.2843 7.71573 39 16 39V41ZM104 -1C113.389 -1 121 6.61116 121 16V24C121 33.3888 113.389 41 104 41V39C112.284 39 119 32.2843 119 24V16C119 7.71573 112.284 1 104 1V-1Z" fill="#E1E8EE" mask="url(#path-1-inside-1_70_565)"/>
<defs>
<clipPath id="clip0_70_565">
<path d="M0 20C0 16.2828 0 14.4241 0.307436 12.8786C1.56994 6.53151 6.53151 1.56994 12.8786 0.307436C14.4241 0 16.2828 0 20 0H100C103.717 0 105.576 0 107.121 0.307436C113.468 1.56994 118.43 6.53151 119.693 12.8786C120 14.4241 120 16.2828 120 20C120 23.7172 120 25.5759 119.693 27.1214C118.43 33.4685 113.468 38.4301 107.121 39.6926C105.576 40 103.717 40 100 40H20C16.2828 40 14.4241 40 12.8786 39.6926C6.53151 38.4301 1.56994 33.4685 0.307436 27.1214C0 25.5759 0 23.7172 0 20Z" fill="white"/>
</clipPath>
</defs>
</svg>
