<svg width="440" height="48" viewBox="0 0 440 48" fill="none" xmlns="http://www.w3.org/2000/svg">
<path d="M0 24C0 10.7452 10.7452 0 24 0H416C429.255 0 440 10.7452 440 24C440 37.2548 429.255 48 416 48H24C10.7452 48 0 37.2548 0 24Z" fill="#0058A4"/>
<mask id="mask0_70_1975" style="mask-type:alpha" maskUnits="userSpaceOnUse" x="88" y="12" width="25" height="24">
<path d="M90.5837 14.7512C90.7211 14.3604 91.1492 14.155 91.54 14.2924L91.8414 14.3984C92.4579 14.6151 92.9815 14.7992 93.3936 15.0014C93.8343 15.2176 94.2121 15.4839 94.4963 15.8998C94.7783 16.3124 94.8947 16.7651 94.9484 17.2615C94.9725 17.4837 94.9852 17.7297 94.9918 18H105.63C107.315 18 108.832 18 109.276 18.5771C109.72 19.1542 109.546 20.0237 109.199 21.7628L108.699 24.1875C108.384 25.7164 108.227 26.4808 107.675 26.9304C107.123 27.38 106.343 27.38 104.782 27.38H99.4787C96.6898 27.38 95.2953 27.38 94.4289 26.4662C93.5625 25.5523 93.4993 24.5816 93.4993 21.64L93.4993 19.0383C93.4993 18.2984 93.4983 17.8032 93.4571 17.423C93.4178 17.0596 93.3481 16.8782 93.2578 16.7461C93.1698 16.6172 93.0361 16.4968 92.7329 16.348C92.41 16.1896 91.9713 16.0341 91.3037 15.7993L91.0425 15.7075C90.6517 15.5701 90.4463 15.142 90.5837 14.7512Z" fill="#232323"/>
<path d="M95.9995 30C96.8279 30 97.4995 30.6716 97.4995 31.5C97.4995 32.3284 96.8279 33 95.9995 33C95.1711 33 94.4995 32.3284 94.4995 31.5C94.4995 30.6716 95.1711 30 95.9995 30Z" fill="#232323"/>
<path d="M105 30.0001C105.828 30.0001 106.5 30.6716 106.5 31.5001C106.5 32.3285 105.828 33.0001 105 33.0001C104.171 33.0001 103.5 32.3285 103.5 31.5001C103.5 30.6716 104.171 30.0001 105 30.0001Z" fill="#232323"/>
</mask>
<g mask="url(#mask0_70_1975)">
<rect x="88.5" y="12" width="24" height="24" fill="white"/>
</g>
<path d="M136.147 29.668V32H123.573V29.668H136.147ZM124.299 29.668V36.1953H121.487L121.381 29.668H124.299ZM138.42 29.668L138.245 36.1836H135.479V29.668H138.42ZM134.084 14.9375V17.2812H126.209V14.9375H134.084ZM136.334 14.9375V32H133.405V14.9375H136.334ZM125.623 14.9375H128.565L128.155 21.8516C128.092 22.9453 127.979 23.9297 127.815 24.8047C127.651 25.6797 127.452 26.4648 127.217 27.1602C126.991 27.8477 126.733 28.457 126.444 28.9883C126.155 29.5117 125.846 29.9648 125.518 30.3477C125.19 30.7305 124.854 31.0586 124.51 31.332C124.174 31.5977 123.842 31.8203 123.514 32H121.944V29.668H122.705C122.916 29.4727 123.151 29.1914 123.409 28.8242C123.666 28.4492 123.916 27.9609 124.159 27.3594C124.409 26.75 124.627 25.9961 124.815 25.0977C125.002 24.1992 125.131 23.1172 125.202 21.8516L125.623 14.9375ZM139.977 25.8008V25.5312C139.977 24.6172 140.109 23.7695 140.375 22.9883C140.641 22.1992 141.023 21.5156 141.523 20.9375C142.031 20.3516 142.648 19.8984 143.375 19.5781C144.109 19.25 144.937 19.0859 145.859 19.0859C146.789 19.0859 147.617 19.25 148.344 19.5781C149.078 19.8984 149.699 20.3516 150.207 20.9375C150.715 21.5156 151.102 22.1992 151.367 22.9883C151.633 23.7695 151.766 24.6172 151.766 25.5312V25.8008C151.766 26.7148 151.633 27.5625 151.367 28.3438C151.102 29.125 150.715 29.8086 150.207 30.3945C149.699 30.9727 149.082 31.4258 148.355 31.7539C147.629 32.0742 146.805 32.2344 145.883 32.2344C144.953 32.2344 144.121 32.0742 143.387 31.7539C142.66 31.4258 142.043 30.9727 141.535 30.3945C141.027 29.8086 140.641 29.125 140.375 28.3438C140.109 27.5625 139.977 26.7148 139.977 25.8008ZM142.801 25.5312V25.8008C142.801 26.3711 142.859 26.9102 142.977 27.418C143.094 27.9258 143.277 28.3711 143.527 28.7539C143.777 29.1367 144.098 29.4375 144.488 29.6562C144.879 29.875 145.344 29.9844 145.883 29.9844C146.406 29.9844 146.859 29.875 147.242 29.6562C147.633 29.4375 147.953 29.1367 148.203 28.7539C148.453 28.3711 148.637 27.9258 148.754 27.418C148.879 26.9102 148.941 26.3711 148.941 25.8008V25.5312C148.941 24.9688 148.879 24.4375 148.754 23.9375C148.637 23.4297 148.449 22.9805 148.191 22.5898C147.941 22.1992 147.621 21.8945 147.23 21.6758C146.848 21.4492 146.391 21.3359 145.859 21.3359C145.328 21.3359 144.867 21.4492 144.477 21.6758C144.094 21.8945 143.777 22.1992 143.527 22.5898C143.277 22.9805 143.094 23.4297 142.977 23.9375C142.859 24.4375 142.801 24.9688 142.801 25.5312ZM162.24 13.7656H164.525C164.525 14.4609 164.427 15.0352 164.232 15.4883C164.045 15.9336 163.763 16.3008 163.388 16.5898C163.021 16.8711 162.564 17.0977 162.017 17.2695C161.478 17.4414 160.853 17.5977 160.142 17.7383C159.486 17.8789 158.892 18.1016 158.361 18.4062C157.837 18.7031 157.396 19.1211 157.037 19.6602C156.685 20.1914 156.431 20.875 156.275 21.7109C156.119 22.5469 156.072 23.5664 156.134 24.7695V25.5664L153.896 25.7656V24.9688C153.896 23.4766 154.033 22.1758 154.306 21.0664C154.58 19.957 154.966 19.0234 155.466 18.2656C155.974 17.5 156.576 16.8906 157.271 16.4375C157.974 15.9844 158.755 15.6719 159.615 15.5C160.201 15.375 160.689 15.25 161.08 15.125C161.47 14.9922 161.759 14.8242 161.947 14.6211C162.142 14.4102 162.24 14.125 162.24 13.7656ZM160.259 20.0352C161.103 20.0352 161.853 20.1836 162.509 20.4805C163.166 20.7695 163.72 21.1758 164.173 21.6992C164.627 22.2227 164.97 22.8398 165.205 23.5508C165.447 24.2617 165.568 25.0352 165.568 25.8711V26.1289C165.568 27.0039 165.439 27.8125 165.181 28.5547C164.923 29.2969 164.545 29.9453 164.045 30.5C163.545 31.0469 162.931 31.4766 162.205 31.7891C161.486 32.0938 160.662 32.2461 159.732 32.2461C158.81 32.2461 157.986 32.0859 157.259 31.7656C156.533 31.4453 155.92 31 155.42 30.4297C154.92 29.8516 154.541 29.1758 154.283 28.4023C154.025 27.6289 153.896 26.7852 153.896 25.8711V25.6133C153.888 25.4492 153.931 25.2891 154.025 25.1328C154.127 24.9766 154.248 24.8086 154.388 24.6289C154.529 24.4492 154.654 24.2422 154.763 24.0078C155.154 23.2188 155.615 22.5273 156.146 21.9336C156.677 21.3398 157.283 20.875 157.962 20.5391C158.65 20.2031 159.416 20.0352 160.259 20.0352ZM159.709 22.2734C159.005 22.2734 158.431 22.4414 157.986 22.7773C157.548 23.1055 157.224 23.543 157.013 24.0898C156.81 24.6367 156.709 25.2305 156.709 25.8711V26.1289C156.709 26.6523 156.767 27.1484 156.884 27.6172C157.002 28.0859 157.177 28.5 157.412 28.8594C157.654 29.2109 157.966 29.4883 158.349 29.6914C158.74 29.8945 159.201 29.9961 159.732 29.9961C160.271 29.9961 160.728 29.8945 161.103 29.6914C161.486 29.4883 161.795 29.2109 162.029 28.8594C162.271 28.5 162.447 28.0859 162.556 27.6172C162.673 27.1484 162.732 26.6523 162.732 26.1289V25.8711C162.732 25.3867 162.673 24.9297 162.556 24.5C162.447 24.0703 162.271 23.6914 162.029 23.3633C161.787 23.0273 161.474 22.7617 161.091 22.5664C160.709 22.3711 160.248 22.2734 159.709 22.2734ZM175.081 29.457V23.4102C175.081 22.957 174.999 22.5664 174.835 22.2383C174.671 21.9102 174.421 21.6562 174.085 21.4766C173.757 21.2969 173.343 21.207 172.843 21.207C172.382 21.207 171.984 21.2852 171.648 21.4414C171.312 21.5977 171.05 21.8086 170.862 22.0742C170.675 22.3398 170.581 22.6406 170.581 22.9766H167.769C167.769 22.4766 167.89 21.9922 168.132 21.5234C168.374 21.0547 168.726 20.6367 169.187 20.2695C169.648 19.9023 170.198 19.6133 170.839 19.4023C171.48 19.1914 172.198 19.0859 172.995 19.0859C173.948 19.0859 174.792 19.2461 175.527 19.5664C176.269 19.8867 176.851 20.3711 177.273 21.0195C177.702 21.6602 177.917 22.4648 177.917 23.4336V29.0703C177.917 29.6484 177.956 30.168 178.034 30.6289C178.12 31.082 178.241 31.4766 178.398 31.8125V32H175.503C175.37 31.6953 175.265 31.3086 175.187 30.8398C175.116 30.3633 175.081 29.9023 175.081 29.457ZM175.491 24.2891L175.515 26.0352H173.487C172.964 26.0352 172.503 26.0859 172.105 26.1875C171.706 26.2812 171.374 26.4219 171.109 26.6094C170.843 26.7969 170.644 27.0234 170.511 27.2891C170.378 27.5547 170.312 27.8555 170.312 28.1914C170.312 28.5273 170.39 28.8359 170.546 29.1172C170.702 29.3906 170.929 29.6055 171.226 29.7617C171.53 29.918 171.898 29.9961 172.327 29.9961C172.905 29.9961 173.409 29.8789 173.839 29.6445C174.277 29.4023 174.62 29.1094 174.87 28.7656C175.12 28.4141 175.253 28.082 175.269 27.7695L176.183 29.0234C176.089 29.3438 175.929 29.6875 175.702 30.0547C175.476 30.4219 175.179 30.7734 174.812 31.1094C174.452 31.4375 174.019 31.707 173.511 31.918C173.011 32.1289 172.433 32.2344 171.777 32.2344C170.948 32.2344 170.21 32.0703 169.562 31.7422C168.913 31.4062 168.405 30.957 168.038 30.3945C167.671 29.8242 167.487 29.1797 167.487 28.4609C167.487 27.7891 167.612 27.1953 167.862 26.6797C168.12 26.1562 168.495 25.7188 168.987 25.3672C169.487 25.0156 170.097 24.75 170.816 24.5703C171.534 24.3828 172.355 24.2891 173.277 24.2891H175.491ZM187.184 26.5742H183.13L183.106 24.582H186.434C186.981 24.582 187.43 24.5273 187.782 24.418C188.141 24.3086 188.407 24.1445 188.579 23.9258C188.751 23.6992 188.837 23.4258 188.837 23.1055C188.837 22.8398 188.786 22.6094 188.684 22.4141C188.583 22.2109 188.427 22.0469 188.216 21.9219C188.012 21.7891 187.755 21.6953 187.442 21.6406C187.137 21.5781 186.782 21.5469 186.376 21.5469H184.067V32H181.243V19.3203H186.376C187.188 19.3203 187.919 19.3906 188.567 19.5312C189.223 19.6719 189.782 19.8867 190.243 20.1758C190.704 20.4648 191.055 20.832 191.298 21.2773C191.548 21.7148 191.673 22.2305 191.673 22.8242C191.673 23.2148 191.587 23.582 191.415 23.9258C191.251 24.2695 191.005 24.5742 190.677 24.8398C190.348 25.1055 189.946 25.3242 189.47 25.4961C188.993 25.6602 188.446 25.7617 187.829 25.8008L187.184 26.5742ZM187.184 32H182.309L183.434 29.7734H187.184C187.684 29.7734 188.098 29.7109 188.427 29.5859C188.755 29.4609 188.997 29.2812 189.153 29.0469C189.317 28.8047 189.399 28.5195 189.399 28.1914C189.399 27.8555 189.321 27.5664 189.165 27.3242C189.009 27.082 188.766 26.8984 188.438 26.7734C188.118 26.6406 187.7 26.5742 187.184 26.5742H183.962L183.985 24.582H187.817L188.626 25.3555C189.43 25.4102 190.098 25.582 190.63 25.8711C191.161 26.1602 191.559 26.5234 191.825 26.9609C192.091 27.3984 192.223 27.875 192.223 28.3906C192.223 28.9844 192.11 29.5078 191.884 29.9609C191.665 30.4141 191.337 30.793 190.899 31.0977C190.47 31.3945 189.942 31.6211 189.317 31.7773C188.692 31.9258 187.981 32 187.184 32ZM197.729 27.875L202.709 19.3203H205.534V32H202.709V23.4336L197.729 32H194.905V19.3203H197.729V27.875ZM214.555 19.3203V32H211.719V19.3203H214.555ZM218.715 19.3203V21.5469H207.629V19.3203H218.715ZM222.849 23.3516H226.588C227.681 23.3516 228.611 23.5352 229.377 23.9023C230.142 24.2695 230.724 24.7812 231.123 25.4375C231.529 26.0859 231.732 26.8281 231.732 27.6641C231.732 28.2812 231.619 28.8555 231.392 29.3867C231.166 29.9102 230.83 30.3672 230.384 30.7578C229.947 31.1484 229.408 31.4531 228.767 31.6719C228.134 31.8906 227.408 32 226.588 32H220.974V19.3203H223.81V29.7617H226.588C227.15 29.7617 227.599 29.6641 227.935 29.4688C228.271 29.2734 228.513 29.0195 228.662 28.707C228.818 28.3945 228.896 28.0625 228.896 27.7109C228.896 27.3516 228.818 27.0117 228.662 26.6914C228.513 26.3711 228.271 26.1094 227.935 25.9062C227.599 25.7031 227.15 25.6016 226.588 25.6016H222.849V23.3516ZM246.434 26.5742H242.38L242.356 24.582H245.684C246.231 24.582 246.68 24.5273 247.032 24.418C247.391 24.3086 247.657 24.1445 247.829 23.9258C248.001 23.6992 248.087 23.4258 248.087 23.1055C248.087 22.8398 248.036 22.6094 247.934 22.4141C247.833 22.2109 247.677 22.0469 247.466 21.9219C247.262 21.7891 247.005 21.6953 246.692 21.6406C246.387 21.5781 246.032 21.5469 245.626 21.5469H243.317V32H240.493V19.3203H245.626C246.438 19.3203 247.169 19.3906 247.817 19.5312C248.473 19.6719 249.032 19.8867 249.493 20.1758C249.954 20.4648 250.305 20.832 250.548 21.2773C250.798 21.7148 250.923 22.2305 250.923 22.8242C250.923 23.2148 250.837 23.582 250.665 23.9258C250.501 24.2695 250.255 24.5742 249.927 24.8398C249.598 25.1055 249.196 25.3242 248.72 25.4961C248.243 25.6602 247.696 25.7617 247.079 25.8008L246.434 26.5742ZM246.434 32H241.559L242.684 29.7734H246.434C246.934 29.7734 247.348 29.7109 247.677 29.5859C248.005 29.4609 248.247 29.2812 248.403 29.0469C248.567 28.8047 248.649 28.5195 248.649 28.1914C248.649 27.8555 248.571 27.5664 248.415 27.3242C248.259 27.082 248.016 26.8984 247.688 26.7734C247.368 26.6406 246.95 26.5742 246.434 26.5742H243.212L243.235 24.582H247.067L247.876 25.3555C248.68 25.4102 249.348 25.582 249.88 25.8711C250.411 26.1602 250.809 26.5234 251.075 26.9609C251.341 27.3984 251.473 27.875 251.473 28.3906C251.473 28.9844 251.36 29.5078 251.134 29.9609C250.915 30.4141 250.587 30.793 250.149 31.0977C249.72 31.3945 249.192 31.6211 248.567 31.7773C247.942 31.9258 247.231 32 246.434 32ZM263.234 19.3203V32H260.41V19.3203H263.234ZM271.508 19.3203L265.801 26.9492H262.578L262.203 24.3945H264.559L267.98 19.3203H271.508ZM268.203 32L264.383 26.4688L266.609 24.8633L271.918 32H268.203ZM272.642 25.8008V25.5312C272.642 24.6172 272.775 23.7695 273.041 22.9883C273.306 22.1992 273.689 21.5156 274.189 20.9375C274.697 20.3516 275.314 19.8984 276.041 19.5781C276.775 19.25 277.603 19.0859 278.525 19.0859C279.455 19.0859 280.283 19.25 281.009 19.5781C281.744 19.8984 282.365 20.3516 282.873 20.9375C283.38 21.5156 283.767 22.1992 284.033 22.9883C284.298 23.7695 284.431 24.6172 284.431 25.5312V25.8008C284.431 26.7148 284.298 27.5625 284.033 28.3438C283.767 29.125 283.38 29.8086 282.873 30.3945C282.365 30.9727 281.748 31.4258 281.021 31.7539C280.295 32.0742 279.47 32.2344 278.548 32.2344C277.619 32.2344 276.787 32.0742 276.052 31.7539C275.326 31.4258 274.709 30.9727 274.201 30.3945C273.693 29.8086 273.306 29.125 273.041 28.3438C272.775 27.5625 272.642 26.7148 272.642 25.8008ZM275.466 25.5312V25.8008C275.466 26.3711 275.525 26.9102 275.642 27.418C275.759 27.9258 275.943 28.3711 276.193 28.7539C276.443 29.1367 276.763 29.4375 277.154 29.6562C277.545 29.875 278.009 29.9844 278.548 29.9844C279.072 29.9844 279.525 29.875 279.908 29.6562C280.298 29.4375 280.619 29.1367 280.869 28.7539C281.119 28.3711 281.302 27.9258 281.42 27.418C281.545 26.9102 281.607 26.3711 281.607 25.8008V25.5312C281.607 24.9688 281.545 24.4375 281.42 23.9375C281.302 23.4297 281.115 22.9805 280.857 22.5898C280.607 22.1992 280.287 21.8945 279.896 21.6758C279.513 21.4492 279.056 21.3359 278.525 21.3359C277.994 21.3359 277.533 21.4492 277.142 21.6758C276.759 21.8945 276.443 22.1992 276.193 22.5898C275.943 22.9805 275.759 23.4297 275.642 23.9375C275.525 24.4375 275.466 24.9688 275.466 25.5312ZM289.784 21.7578V36.875H286.96V19.3203H289.562L289.784 21.7578ZM298.046 25.543V25.7891C298.046 26.7109 297.937 27.5664 297.718 28.3555C297.507 29.1367 297.191 29.8203 296.769 30.4062C296.355 30.9844 295.843 31.4336 295.234 31.7539C294.624 32.0742 293.921 32.2344 293.124 32.2344C292.335 32.2344 291.644 32.0898 291.05 31.8008C290.464 31.5039 289.968 31.0859 289.562 30.5469C289.155 30.0078 288.827 29.375 288.577 28.6484C288.335 27.9141 288.163 27.1094 288.062 26.2344V25.2852C288.163 24.3555 288.335 23.5117 288.577 22.7539C288.827 21.9961 289.155 21.3438 289.562 20.7969C289.968 20.25 290.464 19.8281 291.05 19.5312C291.636 19.2344 292.32 19.0859 293.101 19.0859C293.898 19.0859 294.605 19.2422 295.222 19.5547C295.839 19.8594 296.359 20.2969 296.78 20.8672C297.202 21.4297 297.519 22.1094 297.73 22.9062C297.941 23.6953 298.046 24.5742 298.046 25.543ZM295.222 25.7891V25.543C295.222 24.957 295.167 24.4141 295.058 23.9141C294.948 23.4062 294.777 22.9609 294.542 22.5781C294.308 22.1953 294.007 21.8984 293.64 21.6875C293.28 21.4688 292.847 21.3594 292.339 21.3594C291.839 21.3594 291.409 21.4453 291.05 21.6172C290.691 21.7812 290.39 22.0117 290.148 22.3086C289.905 22.6055 289.718 22.9531 289.585 23.3516C289.452 23.7422 289.359 24.168 289.304 24.6289V26.9023C289.398 27.4648 289.558 27.9805 289.784 28.4492C290.011 28.918 290.331 29.293 290.745 29.5742C291.167 29.8477 291.706 29.9844 292.362 29.9844C292.87 29.9844 293.304 29.875 293.663 29.6562C294.023 29.4375 294.316 29.1367 294.542 28.7539C294.777 28.3633 294.948 27.9141 295.058 27.4062C295.167 26.8984 295.222 26.3594 295.222 25.7891ZM305.848 25.9414H303.411V24.5117H305.38C305.88 24.5117 306.278 24.4453 306.575 24.3125C306.88 24.1797 307.095 23.9961 307.22 23.7617C307.352 23.5195 307.419 23.2383 307.419 22.918C307.419 22.6367 307.352 22.3711 307.22 22.1211C307.095 21.8633 306.88 21.6523 306.575 21.4883C306.27 21.3242 305.856 21.2422 305.333 21.2422C304.903 21.2422 304.516 21.3125 304.173 21.4531C303.837 21.5938 303.571 21.7891 303.376 22.0391C303.18 22.2891 303.083 22.5781 303.083 22.9062H300.259C300.259 22.1172 300.481 21.4375 300.927 20.8672C301.38 20.2969 301.985 19.8594 302.743 19.5547C303.501 19.25 304.333 19.0977 305.239 19.0977C306.013 19.0977 306.708 19.1797 307.325 19.3438C307.942 19.5 308.466 19.7344 308.895 20.0469C309.333 20.3516 309.665 20.7344 309.891 21.1953C310.126 21.6484 310.243 22.1758 310.243 22.7773C310.243 23.207 310.141 23.6133 309.938 23.9961C309.735 24.3789 309.442 24.7188 309.059 25.0156C308.677 25.3047 308.212 25.5312 307.665 25.6953C307.126 25.8594 306.52 25.9414 305.848 25.9414ZM303.411 25.1211H305.848C306.598 25.1211 307.263 25.1953 307.841 25.3438C308.419 25.4844 308.903 25.6953 309.294 25.9766C309.684 26.2578 309.977 26.6055 310.173 27.0195C310.376 27.4258 310.477 27.8945 310.477 28.4258C310.477 29.0195 310.348 29.5547 310.091 30.0312C309.841 30.5 309.481 30.8984 309.013 31.2266C308.552 31.5547 308.001 31.8047 307.36 31.9766C306.72 32.1484 306.013 32.2344 305.239 32.2344C304.395 32.2344 303.575 32.0938 302.778 31.8125C301.989 31.5312 301.337 31.0977 300.821 30.5117C300.313 29.918 300.059 29.1641 300.059 28.25H302.884C302.884 28.5703 302.981 28.8711 303.177 29.1523C303.372 29.4336 303.653 29.6641 304.02 29.8438C304.388 30.0156 304.829 30.1016 305.345 30.1016C305.876 30.1016 306.309 30.0195 306.645 29.8555C306.981 29.6836 307.231 29.4609 307.395 29.1875C307.559 28.9062 307.641 28.6094 307.641 28.2969C307.641 27.875 307.559 27.5352 307.395 27.2773C307.231 27.0195 306.981 26.832 306.645 26.7148C306.309 26.5898 305.888 26.5273 305.38 26.5273H303.411V25.1211ZM315.948 27.875L320.928 19.3203H323.752V32H320.928V23.4336L315.948 32H313.123V19.3203H315.948V27.875ZM335.551 24.6172V26.8438H328.988V24.6172H335.551ZM329.809 19.3203V32H326.984V19.3203H329.809ZM337.59 19.3203V32H334.766V19.3203H337.59ZM344.431 30.6172L347.877 19.3203H350.9L345.814 33.9336C345.697 34.2461 345.545 34.5859 345.357 34.9531C345.17 35.3203 344.923 35.668 344.619 35.9961C344.322 36.332 343.951 36.6016 343.505 36.8047C343.06 37.0156 342.521 37.1211 341.888 37.1211C341.638 37.1211 341.396 37.0977 341.162 37.0508C340.935 37.0117 340.72 36.9688 340.517 36.9219L340.505 34.7656C340.584 34.7734 340.677 34.7812 340.787 34.7891C340.904 34.7969 340.998 34.8008 341.068 34.8008C341.537 34.8008 341.927 34.7422 342.24 34.625C342.552 34.5156 342.806 34.3359 343.002 34.0859C343.205 33.8359 343.377 33.5 343.517 33.0781L344.431 30.6172ZM342.486 19.3203L345.498 28.8125L346.002 31.7891L344.045 32.293L339.439 19.3203H342.486Z" fill="white"/>
</svg>
