<svg width="432" height="48" viewBox="0 0 432 48" fill="none" xmlns="http://www.w3.org/2000/svg">
<path d="M0 24C0 10.7452 10.7452 0 24 0H408C421.255 0 432 10.7452 432 24C432 37.2548 421.255 48 408 48H24C10.7452 48 0 37.2548 0 24Z" fill="#0058A4"/>
<path d="M122.173 26.4453H125.102C125.009 27.5625 124.696 28.5586 124.165 29.4336C123.634 30.3008 122.887 30.9844 121.927 31.4844C120.966 31.9844 119.798 32.2344 118.423 32.2344C117.368 32.2344 116.419 32.0469 115.575 31.6719C114.731 31.2891 114.009 30.75 113.407 30.0547C112.805 29.3516 112.345 28.5039 112.024 27.5117C111.712 26.5195 111.555 25.4102 111.555 24.1836V22.7656C111.555 21.5391 111.716 20.4297 112.036 19.4375C112.364 18.4453 112.833 17.5977 113.442 16.8945C114.052 16.1836 114.782 15.6406 115.634 15.2656C116.493 14.8906 117.458 14.7031 118.528 14.7031C119.887 14.7031 121.036 14.9531 121.973 15.4531C122.911 15.9531 123.637 16.6445 124.153 17.5273C124.677 18.4102 124.997 19.4219 125.114 20.5625H122.184C122.106 19.8281 121.934 19.1992 121.669 18.6758C121.411 18.1523 121.028 17.7539 120.52 17.4805C120.012 17.1992 119.348 17.0586 118.528 17.0586C117.856 17.0586 117.27 17.1836 116.77 17.4336C116.27 17.6836 115.852 18.0508 115.516 18.5352C115.18 19.0195 114.927 19.6172 114.755 20.3281C114.591 21.0312 114.509 21.8359 114.509 22.7422V24.1836C114.509 25.043 114.583 25.8242 114.731 26.5273C114.887 27.2227 115.122 27.8203 115.434 28.3203C115.755 28.8203 116.161 29.207 116.653 29.4805C117.145 29.7539 117.735 29.8906 118.423 29.8906C119.259 29.8906 119.934 29.7578 120.45 29.4922C120.973 29.2266 121.368 28.8398 121.634 28.332C121.907 27.8164 122.087 27.1875 122.173 26.4453ZM142.702 25.8125V26.0586C142.702 26.957 142.6 27.7852 142.397 28.543C142.202 29.293 141.909 29.9453 141.518 30.5C141.127 31.0547 140.643 31.4844 140.065 31.7891C139.495 32.0938 138.83 32.2461 138.073 32.2461C137.409 32.2461 136.83 32.1328 136.338 31.9062C135.846 31.6797 135.432 31.3633 135.096 30.957C134.76 30.543 134.491 30.0586 134.287 29.5039C134.084 28.9414 133.936 28.3242 133.842 27.6523V23.9844C133.936 23.2656 134.08 22.6094 134.276 22.0156C134.479 21.4141 134.748 20.8945 135.084 20.457C135.428 20.0195 135.842 19.6836 136.327 19.4492C136.811 19.207 137.385 19.0859 138.049 19.0859C138.659 19.0859 139.209 19.1953 139.702 19.4141C140.194 19.625 140.627 19.9297 141.002 20.3281C141.377 20.7188 141.69 21.1914 141.94 21.7461C142.19 22.293 142.377 22.9102 142.502 23.5977C142.635 24.2852 142.702 25.0234 142.702 25.8125ZM139.877 26.0586V25.8125C139.877 25.3203 139.846 24.8516 139.784 24.4062C139.721 23.9609 139.623 23.5547 139.491 23.1875C139.366 22.8125 139.202 22.4883 138.998 22.2148C138.795 21.9336 138.549 21.7188 138.26 21.5703C137.979 21.4141 137.651 21.3359 137.276 21.3359C136.768 21.3359 136.346 21.4219 136.01 21.5938C135.682 21.7578 135.432 21.9922 135.26 22.2969C135.096 22.5938 134.991 22.9375 134.944 23.3281V28.3203C134.998 28.6484 135.112 28.9375 135.284 29.1875C135.463 29.4375 135.717 29.6367 136.045 29.7852C136.373 29.9258 136.791 29.9961 137.299 29.9961C137.768 29.9961 138.162 29.8984 138.483 29.7031C138.811 29.5 139.077 29.2188 139.28 28.8594C139.491 28.5 139.643 28.082 139.737 27.6055C139.83 27.1289 139.877 26.6133 139.877 26.0586ZM127.162 26.0586V25.8125C127.162 25.0234 127.225 24.2852 127.35 23.5977C127.475 22.9102 127.662 22.293 127.912 21.7461C128.17 21.1914 128.487 20.7188 128.862 20.3281C129.237 19.9297 129.67 19.625 130.162 19.4141C130.655 19.1953 131.205 19.0859 131.815 19.0859C132.471 19.0859 133.037 19.207 133.514 19.4492C133.991 19.6836 134.393 20.0195 134.721 20.457C135.057 20.8945 135.323 21.4141 135.518 22.0156C135.721 22.6094 135.87 23.2656 135.963 23.9844V27.5117C135.877 28.1992 135.733 28.832 135.53 29.4102C135.327 29.9883 135.061 30.4883 134.733 30.9102C134.405 31.332 133.998 31.6602 133.514 31.8945C133.03 32.1289 132.455 32.2461 131.791 32.2461C131.041 32.2461 130.377 32.0938 129.799 31.7891C129.221 31.4844 128.737 31.0547 128.346 30.5C127.955 29.9453 127.659 29.293 127.455 28.543C127.26 27.7852 127.162 26.957 127.162 26.0586ZM129.987 25.8125V26.0586C129.987 26.6133 130.03 27.1289 130.116 27.6055C130.209 28.082 130.354 28.5 130.549 28.8594C130.745 29.2109 131.002 29.4883 131.323 29.6914C131.643 29.8945 132.037 29.9961 132.506 29.9961C133.022 29.9961 133.444 29.918 133.772 29.7617C134.1 29.6055 134.35 29.3906 134.522 29.1172C134.702 28.8438 134.819 28.5312 134.873 28.1797V23.3281C134.827 22.9375 134.717 22.5938 134.545 22.2969C134.373 21.9922 134.123 21.7578 133.795 21.5938C133.467 21.4219 133.045 21.3359 132.53 21.3359C132.061 21.3359 131.662 21.4531 131.334 21.6875C131.014 21.9219 130.752 22.2461 130.549 22.6602C130.354 23.0664 130.209 23.543 130.116 24.0898C130.03 24.6289 129.987 25.2031 129.987 25.8125ZM133.455 36.875V14H136.291V36.875H133.455ZM144.738 25.8008V25.5312C144.738 24.6172 144.871 23.7695 145.137 22.9883C145.402 22.1992 145.785 21.5156 146.285 20.9375C146.793 20.3516 147.41 19.8984 148.137 19.5781C148.871 19.25 149.699 19.0859 150.621 19.0859C151.551 19.0859 152.379 19.25 153.105 19.5781C153.84 19.8984 154.461 20.3516 154.969 20.9375C155.477 21.5156 155.863 22.1992 156.129 22.9883C156.395 23.7695 156.527 24.6172 156.527 25.5312V25.8008C156.527 26.7148 156.395 27.5625 156.129 28.3438C155.863 29.125 155.477 29.8086 154.969 30.3945C154.461 30.9727 153.844 31.4258 153.117 31.7539C152.391 32.0742 151.566 32.2344 150.645 32.2344C149.715 32.2344 148.883 32.0742 148.148 31.7539C147.422 31.4258 146.805 30.9727 146.297 30.3945C145.789 29.8086 145.402 29.125 145.137 28.3438C144.871 27.5625 144.738 26.7148 144.738 25.8008ZM147.562 25.5312V25.8008C147.562 26.3711 147.621 26.9102 147.738 27.418C147.855 27.9258 148.039 28.3711 148.289 28.7539C148.539 29.1367 148.859 29.4375 149.25 29.6562C149.641 29.875 150.105 29.9844 150.645 29.9844C151.168 29.9844 151.621 29.875 152.004 29.6562C152.395 29.4375 152.715 29.1367 152.965 28.7539C153.215 28.3711 153.398 27.9258 153.516 27.418C153.641 26.9102 153.703 26.3711 153.703 25.8008V25.5312C153.703 24.9688 153.641 24.4375 153.516 23.9375C153.398 23.4297 153.211 22.9805 152.953 22.5898C152.703 22.1992 152.383 21.8945 151.992 21.6758C151.609 21.4492 151.152 21.3359 150.621 21.3359C150.09 21.3359 149.629 21.4492 149.238 21.6758C148.855 21.8945 148.539 22.1992 148.289 22.5898C148.039 22.9805 147.855 23.4297 147.738 23.9375C147.621 24.4375 147.562 24.9688 147.562 25.5312ZM161.88 21.7578V36.875H159.056V19.3203H161.658L161.88 21.7578ZM170.142 25.543V25.7891C170.142 26.7109 170.033 27.5664 169.814 28.3555C169.603 29.1367 169.287 29.8203 168.865 30.4062C168.451 30.9844 167.939 31.4336 167.33 31.7539C166.72 32.0742 166.017 32.2344 165.22 32.2344C164.431 32.2344 163.74 32.0898 163.146 31.8008C162.56 31.5039 162.064 31.0859 161.658 30.5469C161.252 30.0078 160.923 29.375 160.673 28.6484C160.431 27.9141 160.259 27.1094 160.158 26.2344V25.2852C160.259 24.3555 160.431 23.5117 160.673 22.7539C160.923 21.9961 161.252 21.3438 161.658 20.7969C162.064 20.25 162.56 19.8281 163.146 19.5312C163.732 19.2344 164.416 19.0859 165.197 19.0859C165.994 19.0859 166.701 19.2422 167.318 19.5547C167.935 19.8594 168.455 20.2969 168.877 20.8672C169.298 21.4297 169.615 22.1094 169.826 22.9062C170.037 23.6953 170.142 24.5742 170.142 25.543ZM167.318 25.7891V25.543C167.318 24.957 167.263 24.4141 167.154 23.9141C167.045 23.4062 166.873 22.9609 166.638 22.5781C166.404 22.1953 166.103 21.8984 165.736 21.6875C165.377 21.4688 164.943 21.3594 164.435 21.3594C163.935 21.3594 163.505 21.4453 163.146 21.6172C162.787 21.7812 162.486 22.0117 162.244 22.3086C162.002 22.6055 161.814 22.9531 161.681 23.3516C161.548 23.7422 161.455 24.168 161.4 24.6289V26.9023C161.494 27.4648 161.654 27.9805 161.88 28.4492C162.107 28.918 162.427 29.293 162.841 29.5742C163.263 29.8477 163.802 29.9844 164.459 29.9844C164.966 29.9844 165.4 29.875 165.759 29.6562C166.119 29.4375 166.412 29.1367 166.638 28.7539C166.873 28.3633 167.045 27.9141 167.154 27.4062C167.263 26.8984 167.318 26.3594 167.318 25.7891ZM180.23 28.5781L184.003 19.3203H186.452L181.191 32H179.269L174.019 19.3203H176.468L180.23 28.5781ZM175.741 19.3203V32H172.917V19.3203H175.741ZM184.718 32V19.3203H187.554V32H184.718ZM193.786 27.875L198.766 19.3203H201.591V32H198.766V23.4336L193.786 32H190.962V19.3203H193.786V27.875ZM207.565 21.7578V36.875H204.741V19.3203H207.342L207.565 21.7578ZM215.827 25.543V25.7891C215.827 26.7109 215.717 27.5664 215.498 28.3555C215.287 29.1367 214.971 29.8203 214.549 30.4062C214.135 30.9844 213.623 31.4336 213.014 31.7539C212.405 32.0742 211.702 32.2344 210.905 32.2344C210.116 32.2344 209.424 32.0898 208.83 31.8008C208.245 31.5039 207.748 31.0859 207.342 30.5469C206.936 30.0078 206.608 29.375 206.358 28.6484C206.116 27.9141 205.944 27.1094 205.842 26.2344V25.2852C205.944 24.3555 206.116 23.5117 206.358 22.7539C206.608 21.9961 206.936 21.3438 207.342 20.7969C207.748 20.25 208.245 19.8281 208.83 19.5312C209.416 19.2344 210.1 19.0859 210.881 19.0859C211.678 19.0859 212.385 19.2422 213.002 19.5547C213.62 19.8594 214.139 20.2969 214.561 20.8672C214.983 21.4297 215.299 22.1094 215.51 22.9062C215.721 23.6953 215.827 24.5742 215.827 25.543ZM213.002 25.7891V25.543C213.002 24.957 212.948 24.4141 212.838 23.9141C212.729 23.4062 212.557 22.9609 212.323 22.5781C212.088 22.1953 211.787 21.8984 211.42 21.6875C211.061 21.4688 210.627 21.3594 210.12 21.3594C209.62 21.3594 209.19 21.4453 208.83 21.6172C208.471 21.7812 208.17 22.0117 207.928 22.3086C207.686 22.6055 207.498 22.9531 207.366 23.3516C207.233 23.7422 207.139 24.168 207.084 24.6289V26.9023C207.178 27.4648 207.338 27.9805 207.565 28.4492C207.791 28.918 208.112 29.293 208.526 29.5742C208.948 29.8477 209.487 29.9844 210.143 29.9844C210.651 29.9844 211.084 29.875 211.444 29.6562C211.803 29.4375 212.096 29.1367 212.323 28.7539C212.557 28.3633 212.729 27.9141 212.838 27.4062C212.948 26.8984 213.002 26.3594 213.002 25.7891ZM217.84 25.8008V25.5312C217.84 24.6172 217.973 23.7695 218.238 22.9883C218.504 22.1992 218.887 21.5156 219.387 20.9375C219.895 20.3516 220.512 19.8984 221.238 19.5781C221.973 19.25 222.801 19.0859 223.723 19.0859C224.652 19.0859 225.48 19.25 226.207 19.5781C226.941 19.8984 227.562 20.3516 228.07 20.9375C228.578 21.5156 228.965 22.1992 229.23 22.9883C229.496 23.7695 229.629 24.6172 229.629 25.5312V25.8008C229.629 26.7148 229.496 27.5625 229.23 28.3438C228.965 29.125 228.578 29.8086 228.07 30.3945C227.562 30.9727 226.945 31.4258 226.219 31.7539C225.492 32.0742 224.668 32.2344 223.746 32.2344C222.816 32.2344 221.984 32.0742 221.25 31.7539C220.523 31.4258 219.906 30.9727 219.398 30.3945C218.891 29.8086 218.504 29.125 218.238 28.3438C217.973 27.5625 217.84 26.7148 217.84 25.8008ZM220.664 25.5312V25.8008C220.664 26.3711 220.723 26.9102 220.84 27.418C220.957 27.9258 221.141 28.3711 221.391 28.7539C221.641 29.1367 221.961 29.4375 222.352 29.6562C222.742 29.875 223.207 29.9844 223.746 29.9844C224.27 29.9844 224.723 29.875 225.105 29.6562C225.496 29.4375 225.816 29.1367 226.066 28.7539C226.316 28.3711 226.5 27.9258 226.617 27.418C226.742 26.9102 226.805 26.3711 226.805 25.8008V25.5312C226.805 24.9688 226.742 24.4375 226.617 23.9375C226.5 23.4297 226.312 22.9805 226.055 22.5898C225.805 22.1992 225.484 21.8945 225.094 21.6758C224.711 21.4492 224.254 21.3359 223.723 21.3359C223.191 21.3359 222.73 21.4492 222.34 21.6758C221.957 21.8945 221.641 22.1992 221.391 22.5898C221.141 22.9805 220.957 23.4297 220.84 23.9375C220.723 24.4375 220.664 24.9688 220.664 25.5312ZM238.31 26.5742H234.255L234.232 24.582H237.56C238.107 24.582 238.556 24.5273 238.908 24.418C239.267 24.3086 239.533 24.1445 239.705 23.9258C239.877 23.6992 239.962 23.4258 239.962 23.1055C239.962 22.8398 239.912 22.6094 239.81 22.4141C239.709 22.2109 239.552 22.0469 239.341 21.9219C239.138 21.7891 238.88 21.6953 238.568 21.6406C238.263 21.5781 237.908 21.5469 237.502 21.5469H235.193V32H232.369V19.3203H237.502C238.314 19.3203 239.045 19.3906 239.693 19.5312C240.349 19.6719 240.908 19.8867 241.369 20.1758C241.83 20.4648 242.181 20.832 242.423 21.2773C242.673 21.7148 242.798 22.2305 242.798 22.8242C242.798 23.2148 242.712 23.582 242.541 23.9258C242.377 24.2695 242.13 24.5742 241.802 24.8398C241.474 25.1055 241.072 25.3242 240.595 25.4961C240.119 25.6602 239.572 25.7617 238.955 25.8008L238.31 26.5742ZM238.31 32H233.435L234.56 29.7734H238.31C238.81 29.7734 239.224 29.7109 239.552 29.5859C239.88 29.4609 240.123 29.2812 240.279 29.0469C240.443 28.8047 240.525 28.5195 240.525 28.1914C240.525 27.8555 240.447 27.5664 240.291 27.3242C240.134 27.082 239.892 26.8984 239.564 26.7734C239.244 26.6406 238.826 26.5742 238.31 26.5742H235.087L235.111 24.582H238.943L239.752 25.3555C240.556 25.4102 241.224 25.582 241.755 25.8711C242.287 26.1602 242.685 26.5234 242.951 26.9609C243.216 27.3984 243.349 27.875 243.349 28.3906C243.349 28.9844 243.236 29.5078 243.009 29.9609C242.791 30.4141 242.462 30.793 242.025 31.0977C241.595 31.3945 241.068 31.6211 240.443 31.7773C239.818 31.9258 239.107 32 238.31 32ZM253.085 29.457V23.4102C253.085 22.957 253.003 22.5664 252.839 22.2383C252.675 21.9102 252.425 21.6562 252.089 21.4766C251.761 21.2969 251.347 21.207 250.847 21.207C250.386 21.207 249.988 21.2852 249.652 21.4414C249.316 21.5977 249.054 21.8086 248.866 22.0742C248.679 22.3398 248.585 22.6406 248.585 22.9766H245.773C245.773 22.4766 245.894 21.9922 246.136 21.5234C246.378 21.0547 246.73 20.6367 247.191 20.2695C247.652 19.9023 248.202 19.6133 248.843 19.4023C249.484 19.1914 250.202 19.0859 250.999 19.0859C251.952 19.0859 252.796 19.2461 253.53 19.5664C254.273 19.8867 254.855 20.3711 255.277 21.0195C255.706 21.6602 255.921 22.4648 255.921 23.4336V29.0703C255.921 29.6484 255.96 30.168 256.038 30.6289C256.124 31.082 256.245 31.4766 256.402 31.8125V32H253.507C253.374 31.6953 253.269 31.3086 253.191 30.8398C253.12 30.3633 253.085 29.9023 253.085 29.457ZM253.495 24.2891L253.519 26.0352H251.491C250.968 26.0352 250.507 26.0859 250.109 26.1875C249.71 26.2812 249.378 26.4219 249.113 26.6094C248.847 26.7969 248.648 27.0234 248.515 27.2891C248.382 27.5547 248.316 27.8555 248.316 28.1914C248.316 28.5273 248.394 28.8359 248.55 29.1172C248.706 29.3906 248.933 29.6055 249.23 29.7617C249.534 29.918 249.902 29.9961 250.331 29.9961C250.909 29.9961 251.413 29.8789 251.843 29.6445C252.28 29.4023 252.624 29.1094 252.874 28.7656C253.124 28.4141 253.257 28.082 253.273 27.7695L254.187 29.0234C254.093 29.3438 253.933 29.6875 253.706 30.0547C253.48 30.4219 253.183 30.7734 252.816 31.1094C252.456 31.4375 252.023 31.707 251.515 31.918C251.015 32.1289 250.437 32.2344 249.78 32.2344C248.952 32.2344 248.214 32.0703 247.566 31.7422C246.917 31.4062 246.409 30.957 246.042 30.3945C245.675 29.8242 245.491 29.1797 245.491 28.4609C245.491 27.7891 245.616 27.1953 245.866 26.6797C246.124 26.1562 246.499 25.7188 246.991 25.3672C247.491 25.0156 248.101 24.75 248.82 24.5703C249.538 24.3828 250.359 24.2891 251.28 24.2891H253.495ZM264.72 19.3203V32H261.884V19.3203H264.72ZM268.88 19.3203V21.5469H257.794V19.3203H268.88ZM273.014 23.3516H276.752C277.846 23.3516 278.776 23.5352 279.541 23.9023C280.307 24.2695 280.889 24.7812 281.287 25.4375C281.694 26.0859 281.897 26.8281 281.897 27.6641C281.897 28.2812 281.784 28.8555 281.557 29.3867C281.33 29.9102 280.995 30.3672 280.549 30.7578C280.112 31.1484 279.573 31.4531 278.932 31.6719C278.299 31.8906 277.573 32 276.752 32H271.139V19.3203H273.975V29.7617H276.752C277.315 29.7617 277.764 29.6641 278.1 29.4688C278.436 29.2734 278.678 29.0195 278.827 28.707C278.983 28.3945 279.061 28.0625 279.061 27.7109C279.061 27.3516 278.983 27.0117 278.827 26.6914C278.678 26.3711 278.436 26.1094 278.1 25.9062C277.764 25.7031 277.315 25.6016 276.752 25.6016H273.014V23.3516ZM293.705 14.9375V32H290.775V14.9375H293.705ZM303.97 14.9375L297.033 24.6641H292.873L292.474 22.1094H295.404L300.373 14.9375H303.97ZM300.97 32L295.451 24.2188L297.349 21.957L304.498 32H300.97ZM319.835 14.9375V32H316.905V17.2812H309.323V32H306.394V14.9375H319.835Z" fill="white"/>
</svg>
