<svg width="311" height="48" viewBox="0 0 311 48" fill="none" xmlns="http://www.w3.org/2000/svg">
<path d="M0 24C0 10.7452 10.7452 0 24 0H287C300.255 0 311 10.7452 311 24C311 37.2548 300.255 48 287 48H24C10.7452 48 0 37.2548 0 24Z" fill="#0058A4"/>
<mask id="mask0_97_2560" style="mask-type:alpha" maskUnits="userSpaceOnUse" x="24" y="12" width="24" height="24">
<path d="M26.0837 14.7512C26.2211 14.3604 26.6492 14.155 27.04 14.2924L27.3414 14.3984C27.9579 14.6151 28.4815 14.7992 28.8936 15.0014C29.3343 15.2176 29.7121 15.4839 29.9963 15.8998C30.2783 16.3124 30.3947 16.7651 30.4484 17.2615C30.4725 17.4837 30.4852 17.7297 30.4918 18H41.1301C42.815 18 44.3318 18 44.7757 18.5771C45.2197 19.1542 45.0461 20.0237 44.699 21.7628L44.1992 24.1875C43.8841 25.7164 43.7266 26.4808 43.1748 26.9304C42.6231 27.38 41.8426 27.38 40.2816 27.38H34.9787C32.1898 27.38 30.7953 27.38 29.9289 26.4662C29.0625 25.5523 28.9993 24.5816 28.9993 21.64L28.9993 19.0383C28.9993 18.2984 28.9983 17.8032 28.9571 17.423C28.9178 17.0596 28.8481 16.8782 28.7578 16.7461C28.6698 16.6172 28.5361 16.4968 28.2329 16.348C27.91 16.1896 27.4713 16.0341 26.8037 15.7993L26.5425 15.7075C26.1517 15.5701 25.9463 15.142 26.0837 14.7512Z" fill="#232323"/>
<path d="M31.4995 30C32.3279 30 32.9995 30.6716 32.9995 31.5C32.9995 32.3284 32.3279 33 31.4995 33C30.6711 33 29.9995 32.3284 29.9995 31.5C29.9995 30.6716 30.6711 30 31.4995 30Z" fill="#232323"/>
<path d="M40.4995 30.0001C41.3279 30.0001 41.9995 30.6716 41.9995 31.5001C41.9995 32.3285 41.3279 33.0001 40.4995 33.0001C39.6711 33.0001 38.9995 32.3285 38.9995 31.5001C38.9995 30.6716 39.6711 30.0001 40.4995 30.0001Z" fill="#232323"/>
</mask>
<g mask="url(#mask0_97_2560)">
<rect x="24" y="12" width="24" height="24" fill="white"/>
</g>
<path d="M71.6469 29.668V32H59.0727V29.668H71.6469ZM59.7992 29.668V36.1953H56.9867L56.8812 29.668H59.7992ZM73.9203 29.668L73.7445 36.1836H70.9789V29.668H73.9203ZM69.5844 14.9375V17.2812H61.7094V14.9375H69.5844ZM71.8344 14.9375V32H68.9047V14.9375H71.8344ZM61.1234 14.9375H64.0648L63.6547 21.8516C63.5922 22.9453 63.4789 23.9297 63.3148 24.8047C63.1508 25.6797 62.9516 26.4648 62.7172 27.1602C62.4906 27.8477 62.2328 28.457 61.9437 28.9883C61.6547 29.5117 61.3461 29.9648 61.018 30.3477C60.6898 30.7305 60.3539 31.0586 60.0102 31.332C59.6742 31.5977 59.3422 31.8203 59.0141 32H57.4437V29.668H58.2055C58.4164 29.4727 58.6508 29.1914 58.9086 28.8242C59.1664 28.4492 59.4164 27.9609 59.6586 27.3594C59.9086 26.75 60.1273 25.9961 60.3148 25.0977C60.5023 24.1992 60.6312 23.1172 60.7016 21.8516L61.1234 14.9375ZM75.4766 25.8008V25.5312C75.4766 24.6172 75.6094 23.7695 75.875 22.9883C76.1406 22.1992 76.5234 21.5156 77.0234 20.9375C77.5312 20.3516 78.1484 19.8984 78.875 19.5781C79.6094 19.25 80.4375 19.0859 81.3594 19.0859C82.2891 19.0859 83.1172 19.25 83.8437 19.5781C84.5781 19.8984 85.1992 20.3516 85.707 20.9375C86.2148 21.5156 86.6016 22.1992 86.8672 22.9883C87.1328 23.7695 87.2656 24.6172 87.2656 25.5312V25.8008C87.2656 26.7148 87.1328 27.5625 86.8672 28.3438C86.6016 29.125 86.2148 29.8086 85.707 30.3945C85.1992 30.9727 84.582 31.4258 83.8555 31.7539C83.1289 32.0742 82.3047 32.2344 81.3828 32.2344C80.4531 32.2344 79.6211 32.0742 78.8867 31.7539C78.1602 31.4258 77.543 30.9727 77.0352 30.3945C76.5273 29.8086 76.1406 29.125 75.875 28.3438C75.6094 27.5625 75.4766 26.7148 75.4766 25.8008ZM78.3008 25.5312V25.8008C78.3008 26.3711 78.3594 26.9102 78.4766 27.418C78.5937 27.9258 78.7773 28.3711 79.0273 28.7539C79.2773 29.1367 79.5977 29.4375 79.9883 29.6562C80.3789 29.875 80.8437 29.9844 81.3828 29.9844C81.9062 29.9844 82.3594 29.875 82.7422 29.6562C83.1328 29.4375 83.4531 29.1367 83.7031 28.7539C83.9531 28.3711 84.1367 27.9258 84.2539 27.418C84.3789 26.9102 84.4414 26.3711 84.4414 25.8008V25.5312C84.4414 24.9688 84.3789 24.4375 84.2539 23.9375C84.1367 23.4297 83.9492 22.9805 83.6914 22.5898C83.4414 22.1992 83.1211 21.8945 82.7305 21.6758C82.3477 21.4492 81.8906 21.3359 81.3594 21.3359C80.8281 21.3359 80.3672 21.4492 79.9766 21.6758C79.5937 21.8945 79.2773 22.1992 79.0273 22.5898C78.7773 22.9805 78.5937 23.4297 78.4766 23.9375C78.3594 24.4375 78.3008 24.9688 78.3008 25.5312ZM97.7398 13.7656H100.025C100.025 14.4609 99.9273 15.0352 99.732 15.4883C99.5445 15.9336 99.2633 16.3008 98.8883 16.5898C98.5211 16.8711 98.0641 17.0977 97.5172 17.2695C96.9781 17.4414 96.3531 17.5977 95.6422 17.7383C94.9859 17.8789 94.3922 18.1016 93.8609 18.4062C93.3375 18.7031 92.8961 19.1211 92.5367 19.6602C92.1852 20.1914 91.9312 20.875 91.775 21.7109C91.6187 22.5469 91.5719 23.5664 91.6344 24.7695V25.5664L89.3961 25.7656V24.9688C89.3961 23.4766 89.5328 22.1758 89.8062 21.0664C90.0797 19.957 90.4664 19.0234 90.9664 18.2656C91.4742 17.5 92.0758 16.8906 92.7711 16.4375C93.4742 15.9844 94.2555 15.6719 95.1148 15.5C95.7008 15.375 96.1891 15.25 96.5797 15.125C96.9703 14.9922 97.2594 14.8242 97.4469 14.6211C97.6422 14.4102 97.7398 14.125 97.7398 13.7656ZM95.7594 20.0352C96.6031 20.0352 97.3531 20.1836 98.0094 20.4805C98.6656 20.7695 99.2203 21.1758 99.6734 21.6992C100.127 22.2227 100.47 22.8398 100.705 23.5508C100.947 24.2617 101.068 25.0352 101.068 25.8711V26.1289C101.068 27.0039 100.939 27.8125 100.681 28.5547C100.423 29.2969 100.045 29.9453 99.5445 30.5C99.0445 31.0469 98.4312 31.4766 97.7047 31.7891C96.9859 32.0938 96.1617 32.2461 95.232 32.2461C94.3102 32.2461 93.4859 32.0859 92.7594 31.7656C92.0328 31.4453 91.4195 31 90.9195 30.4297C90.4195 29.8516 90.0406 29.1758 89.7828 28.4023C89.525 27.6289 89.3961 26.7852 89.3961 25.8711V25.6133C89.3883 25.4492 89.4312 25.2891 89.525 25.1328C89.6266 24.9766 89.7477 24.8086 89.8883 24.6289C90.0289 24.4492 90.1539 24.2422 90.2633 24.0078C90.6539 23.2188 91.1148 22.5273 91.6461 21.9336C92.1773 21.3398 92.7828 20.875 93.4625 20.5391C94.15 20.2031 94.9156 20.0352 95.7594 20.0352ZM95.2086 22.2734C94.5055 22.2734 93.9312 22.4414 93.4859 22.7773C93.0484 23.1055 92.7242 23.543 92.5133 24.0898C92.3102 24.6367 92.2086 25.2305 92.2086 25.8711V26.1289C92.2086 26.6523 92.2672 27.1484 92.3844 27.6172C92.5016 28.0859 92.6773 28.5 92.9117 28.8594C93.1539 29.2109 93.4664 29.4883 93.8492 29.6914C94.2398 29.8945 94.7008 29.9961 95.232 29.9961C95.7711 29.9961 96.2281 29.8945 96.6031 29.6914C96.9859 29.4883 97.2945 29.2109 97.5289 28.8594C97.7711 28.5 97.9469 28.0859 98.0562 27.6172C98.1734 27.1484 98.232 26.6523 98.232 26.1289V25.8711C98.232 25.3867 98.1734 24.9297 98.0562 24.5C97.9469 24.0703 97.7711 23.6914 97.5289 23.3633C97.2867 23.0273 96.9742 22.7617 96.5914 22.5664C96.2086 22.3711 95.7477 22.2734 95.2086 22.2734ZM110.581 29.457V23.4102C110.581 22.957 110.499 22.5664 110.335 22.2383C110.171 21.9102 109.921 21.6562 109.585 21.4766C109.257 21.2969 108.843 21.207 108.343 21.207C107.882 21.207 107.484 21.2852 107.148 21.4414C106.812 21.5977 106.55 21.8086 106.362 22.0742C106.175 22.3398 106.081 22.6406 106.081 22.9766H103.269C103.269 22.4766 103.39 21.9922 103.632 21.5234C103.874 21.0547 104.226 20.6367 104.687 20.2695C105.148 19.9023 105.698 19.6133 106.339 19.4023C106.98 19.1914 107.698 19.0859 108.495 19.0859C109.448 19.0859 110.292 19.2461 111.027 19.5664C111.769 19.8867 112.351 20.3711 112.773 21.0195C113.202 21.6602 113.417 22.4648 113.417 23.4336V29.0703C113.417 29.6484 113.456 30.168 113.534 30.6289C113.62 31.082 113.741 31.4766 113.898 31.8125V32H111.003C110.87 31.6953 110.765 31.3086 110.687 30.8398C110.616 30.3633 110.581 29.9023 110.581 29.457ZM110.991 24.2891L111.015 26.0352H108.987C108.464 26.0352 108.003 26.0859 107.605 26.1875C107.206 26.2812 106.874 26.4219 106.609 26.6094C106.343 26.7969 106.144 27.0234 106.011 27.2891C105.878 27.5547 105.812 27.8555 105.812 28.1914C105.812 28.5273 105.89 28.8359 106.046 29.1172C106.202 29.3906 106.429 29.6055 106.726 29.7617C107.03 29.918 107.398 29.9961 107.827 29.9961C108.405 29.9961 108.909 29.8789 109.339 29.6445C109.777 29.4023 110.12 29.1094 110.37 28.7656C110.62 28.4141 110.753 28.082 110.769 27.7695L111.683 29.0234C111.589 29.3438 111.429 29.6875 111.202 30.0547C110.976 30.4219 110.679 30.7734 110.312 31.1094C109.952 31.4375 109.519 31.707 109.011 31.918C108.511 32.1289 107.933 32.2344 107.277 32.2344C106.448 32.2344 105.71 32.0703 105.062 31.7422C104.413 31.4062 103.905 30.957 103.538 30.3945C103.171 29.8242 102.987 29.1797 102.987 28.4609C102.987 27.7891 103.112 27.1953 103.362 26.6797C103.62 26.1562 103.995 25.7188 104.487 25.3672C104.987 25.0156 105.597 24.75 106.316 24.5703C107.034 24.3828 107.855 24.2891 108.777 24.2891H110.991ZM122.684 26.5742H118.63L118.606 24.582H121.934C122.481 24.582 122.93 24.5273 123.282 24.418C123.641 24.3086 123.907 24.1445 124.079 23.9258C124.251 23.6992 124.337 23.4258 124.337 23.1055C124.337 22.8398 124.286 22.6094 124.184 22.4141C124.083 22.2109 123.927 22.0469 123.716 21.9219C123.512 21.7891 123.255 21.6953 122.942 21.6406C122.637 21.5781 122.282 21.5469 121.876 21.5469H119.567V32H116.743V19.3203H121.876C122.688 19.3203 123.419 19.3906 124.067 19.5312C124.723 19.6719 125.282 19.8867 125.743 20.1758C126.204 20.4648 126.555 20.832 126.798 21.2773C127.048 21.7148 127.173 22.2305 127.173 22.8242C127.173 23.2148 127.087 23.582 126.915 23.9258C126.751 24.2695 126.505 24.5742 126.177 24.8398C125.848 25.1055 125.446 25.3242 124.97 25.4961C124.493 25.6602 123.946 25.7617 123.329 25.8008L122.684 26.5742ZM122.684 32H117.809L118.934 29.7734H122.684C123.184 29.7734 123.598 29.7109 123.927 29.5859C124.255 29.4609 124.497 29.2812 124.653 29.0469C124.817 28.8047 124.899 28.5195 124.899 28.1914C124.899 27.8555 124.821 27.5664 124.665 27.3242C124.509 27.082 124.266 26.8984 123.938 26.7734C123.618 26.6406 123.2 26.5742 122.684 26.5742H119.462L119.485 24.582H123.317L124.126 25.3555C124.93 25.4102 125.598 25.582 126.13 25.8711C126.661 26.1602 127.059 26.5234 127.325 26.9609C127.591 27.3984 127.723 27.875 127.723 28.3906C127.723 28.9844 127.61 29.5078 127.384 29.9609C127.165 30.4141 126.837 30.793 126.399 31.0977C125.97 31.3945 125.442 31.6211 124.817 31.7773C124.192 31.9258 123.481 32 122.684 32ZM133.229 27.875L138.209 19.3203H141.034V32H138.209V23.4336L133.229 32H130.405V19.3203H133.229V27.875ZM150.055 19.3203V32H147.219V19.3203H150.055ZM154.215 19.3203V21.5469H143.129V19.3203H154.215ZM158.349 23.3516H162.088C163.181 23.3516 164.111 23.5352 164.877 23.9023C165.642 24.2695 166.224 24.7812 166.623 25.4375C167.029 26.0859 167.232 26.8281 167.232 27.6641C167.232 28.2812 167.119 28.8555 166.892 29.3867C166.666 29.9102 166.33 30.3672 165.884 30.7578C165.447 31.1484 164.908 31.4531 164.267 31.6719C163.634 31.8906 162.908 32 162.088 32H156.474V19.3203H159.31V29.7617H162.088C162.65 29.7617 163.099 29.6641 163.435 29.4688C163.771 29.2734 164.013 29.0195 164.162 28.707C164.318 28.3945 164.396 28.0625 164.396 27.7109C164.396 27.3516 164.318 27.0117 164.162 26.6914C164.013 26.3711 163.771 26.1094 163.435 25.9062C163.099 25.7031 162.65 25.6016 162.088 25.6016H158.349V23.3516ZM181.934 26.5742H177.88L177.856 24.582H181.184C181.731 24.582 182.18 24.5273 182.532 24.418C182.891 24.3086 183.157 24.1445 183.329 23.9258C183.501 23.6992 183.587 23.4258 183.587 23.1055C183.587 22.8398 183.536 22.6094 183.434 22.4141C183.333 22.2109 183.177 22.0469 182.966 21.9219C182.762 21.7891 182.505 21.6953 182.192 21.6406C181.887 21.5781 181.532 21.5469 181.126 21.5469H178.817V32H175.993V19.3203H181.126C181.938 19.3203 182.669 19.3906 183.317 19.5312C183.973 19.6719 184.532 19.8867 184.993 20.1758C185.454 20.4648 185.805 20.832 186.048 21.2773C186.298 21.7148 186.423 22.2305 186.423 22.8242C186.423 23.2148 186.337 23.582 186.165 23.9258C186.001 24.2695 185.755 24.5742 185.427 24.8398C185.098 25.1055 184.696 25.3242 184.22 25.4961C183.743 25.6602 183.196 25.7617 182.579 25.8008L181.934 26.5742ZM181.934 32H177.059L178.184 29.7734H181.934C182.434 29.7734 182.848 29.7109 183.177 29.5859C183.505 29.4609 183.747 29.2812 183.903 29.0469C184.067 28.8047 184.149 28.5195 184.149 28.1914C184.149 27.8555 184.071 27.5664 183.915 27.3242C183.759 27.082 183.516 26.8984 183.188 26.7734C182.868 26.6406 182.45 26.5742 181.934 26.5742H178.712L178.735 24.582H182.567L183.376 25.3555C184.18 25.4102 184.848 25.582 185.38 25.8711C185.911 26.1602 186.309 26.5234 186.575 26.9609C186.841 27.3984 186.973 27.875 186.973 28.3906C186.973 28.9844 186.86 29.5078 186.634 29.9609C186.415 30.4141 186.087 30.793 185.649 31.0977C185.22 31.3945 184.692 31.6211 184.067 31.7773C183.442 31.9258 182.731 32 181.934 32ZM198.734 19.3203V32H195.91V19.3203H198.734ZM207.008 19.3203L201.301 26.9492H198.078L197.703 24.3945H200.059L203.48 19.3203H207.008ZM203.703 32L199.883 26.4688L202.109 24.8633L207.418 32H203.703ZM208.142 25.8008V25.5312C208.142 24.6172 208.275 23.7695 208.541 22.9883C208.806 22.1992 209.189 21.5156 209.689 20.9375C210.197 20.3516 210.814 19.8984 211.541 19.5781C212.275 19.25 213.103 19.0859 214.025 19.0859C214.955 19.0859 215.783 19.25 216.509 19.5781C217.244 19.8984 217.865 20.3516 218.373 20.9375C218.88 21.5156 219.267 22.1992 219.533 22.9883C219.798 23.7695 219.931 24.6172 219.931 25.5312V25.8008C219.931 26.7148 219.798 27.5625 219.533 28.3438C219.267 29.125 218.88 29.8086 218.373 30.3945C217.865 30.9727 217.248 31.4258 216.521 31.7539C215.795 32.0742 214.97 32.2344 214.048 32.2344C213.119 32.2344 212.287 32.0742 211.552 31.7539C210.826 31.4258 210.209 30.9727 209.701 30.3945C209.193 29.8086 208.806 29.125 208.541 28.3438C208.275 27.5625 208.142 26.7148 208.142 25.8008ZM210.966 25.5312V25.8008C210.966 26.3711 211.025 26.9102 211.142 27.418C211.259 27.9258 211.443 28.3711 211.693 28.7539C211.943 29.1367 212.263 29.4375 212.654 29.6562C213.045 29.875 213.509 29.9844 214.048 29.9844C214.572 29.9844 215.025 29.875 215.408 29.6562C215.798 29.4375 216.119 29.1367 216.369 28.7539C216.619 28.3711 216.802 27.9258 216.92 27.418C217.045 26.9102 217.107 26.3711 217.107 25.8008V25.5312C217.107 24.9688 217.045 24.4375 216.92 23.9375C216.802 23.4297 216.615 22.9805 216.357 22.5898C216.107 22.1992 215.787 21.8945 215.396 21.6758C215.013 21.4492 214.556 21.3359 214.025 21.3359C213.494 21.3359 213.033 21.4492 212.642 21.6758C212.259 21.8945 211.943 22.1992 211.693 22.5898C211.443 22.9805 211.259 23.4297 211.142 23.9375C211.025 24.4375 210.966 24.9688 210.966 25.5312ZM225.284 21.7578V36.875H222.46V19.3203H225.062L225.284 21.7578ZM233.546 25.543V25.7891C233.546 26.7109 233.437 27.5664 233.218 28.3555C233.007 29.1367 232.691 29.8203 232.269 30.4062C231.855 30.9844 231.343 31.4336 230.734 31.7539C230.124 32.0742 229.421 32.2344 228.624 32.2344C227.835 32.2344 227.144 32.0898 226.55 31.8008C225.964 31.5039 225.468 31.0859 225.062 30.5469C224.655 30.0078 224.327 29.375 224.077 28.6484C223.835 27.9141 223.663 27.1094 223.562 26.2344V25.2852C223.663 24.3555 223.835 23.5117 224.077 22.7539C224.327 21.9961 224.655 21.3438 225.062 20.7969C225.468 20.25 225.964 19.8281 226.55 19.5312C227.136 19.2344 227.82 19.0859 228.601 19.0859C229.398 19.0859 230.105 19.2422 230.722 19.5547C231.339 19.8594 231.859 20.2969 232.28 20.8672C232.702 21.4297 233.019 22.1094 233.23 22.9062C233.441 23.6953 233.546 24.5742 233.546 25.543ZM230.722 25.7891V25.543C230.722 24.957 230.667 24.4141 230.558 23.9141C230.448 23.4062 230.277 22.9609 230.042 22.5781C229.808 22.1953 229.507 21.8984 229.14 21.6875C228.78 21.4688 228.347 21.3594 227.839 21.3594C227.339 21.3594 226.909 21.4453 226.55 21.6172C226.191 21.7812 225.89 22.0117 225.648 22.3086C225.405 22.6055 225.218 22.9531 225.085 23.3516C224.952 23.7422 224.859 24.168 224.804 24.6289V26.9023C224.898 27.4648 225.058 27.9805 225.284 28.4492C225.511 28.918 225.831 29.293 226.245 29.5742C226.667 29.8477 227.206 29.9844 227.862 29.9844C228.37 29.9844 228.804 29.875 229.163 29.6562C229.523 29.4375 229.816 29.1367 230.042 28.7539C230.277 28.3633 230.448 27.9141 230.558 27.4062C230.667 26.8984 230.722 26.3594 230.722 25.7891ZM241.348 25.9414H238.911V24.5117H240.88C241.38 24.5117 241.778 24.4453 242.075 24.3125C242.38 24.1797 242.595 23.9961 242.72 23.7617C242.852 23.5195 242.919 23.2383 242.919 22.918C242.919 22.6367 242.852 22.3711 242.72 22.1211C242.595 21.8633 242.38 21.6523 242.075 21.4883C241.77 21.3242 241.356 21.2422 240.833 21.2422C240.403 21.2422 240.016 21.3125 239.673 21.4531C239.337 21.5938 239.071 21.7891 238.876 22.0391C238.68 22.2891 238.583 22.5781 238.583 22.9062H235.759C235.759 22.1172 235.981 21.4375 236.427 20.8672C236.88 20.2969 237.485 19.8594 238.243 19.5547C239.001 19.25 239.833 19.0977 240.739 19.0977C241.513 19.0977 242.208 19.1797 242.825 19.3438C243.442 19.5 243.966 19.7344 244.395 20.0469C244.833 20.3516 245.165 20.7344 245.391 21.1953C245.626 21.6484 245.743 22.1758 245.743 22.7773C245.743 23.207 245.641 23.6133 245.438 23.9961C245.235 24.3789 244.942 24.7188 244.559 25.0156C244.177 25.3047 243.712 25.5312 243.165 25.6953C242.626 25.8594 242.02 25.9414 241.348 25.9414ZM238.911 25.1211H241.348C242.098 25.1211 242.763 25.1953 243.341 25.3438C243.919 25.4844 244.403 25.6953 244.794 25.9766C245.184 26.2578 245.477 26.6055 245.673 27.0195C245.876 27.4258 245.977 27.8945 245.977 28.4258C245.977 29.0195 245.848 29.5547 245.591 30.0312C245.341 30.5 244.981 30.8984 244.513 31.2266C244.052 31.5547 243.501 31.8047 242.86 31.9766C242.22 32.1484 241.513 32.2344 240.739 32.2344C239.895 32.2344 239.075 32.0938 238.278 31.8125C237.489 31.5312 236.837 31.0977 236.321 30.5117C235.813 29.918 235.559 29.1641 235.559 28.25H238.384C238.384 28.5703 238.481 28.8711 238.677 29.1523C238.872 29.4336 239.153 29.6641 239.52 29.8438C239.888 30.0156 240.329 30.1016 240.845 30.1016C241.376 30.1016 241.809 30.0195 242.145 29.8555C242.481 29.6836 242.731 29.4609 242.895 29.1875C243.059 28.9062 243.141 28.6094 243.141 28.2969C243.141 27.875 243.059 27.5352 242.895 27.2773C242.731 27.0195 242.481 26.832 242.145 26.7148C241.809 26.5898 241.388 26.5273 240.88 26.5273H238.911V25.1211ZM251.448 27.875L256.428 19.3203H259.252V32H256.428V23.4336L251.448 32H248.623V19.3203H251.448V27.875ZM271.051 24.6172V26.8438H264.488V24.6172H271.051ZM265.309 19.3203V32H262.484V19.3203H265.309ZM273.09 19.3203V32H270.266V19.3203H273.09ZM279.931 30.6172L283.377 19.3203H286.4L281.314 33.9336C281.197 34.2461 281.045 34.5859 280.857 34.9531C280.67 35.3203 280.423 35.668 280.119 35.9961C279.822 36.332 279.451 36.6016 279.005 36.8047C278.56 37.0156 278.021 37.1211 277.388 37.1211C277.138 37.1211 276.896 37.0977 276.662 37.0508C276.435 37.0117 276.22 36.9688 276.017 36.9219L276.005 34.7656C276.084 34.7734 276.177 34.7812 276.287 34.7891C276.404 34.7969 276.498 34.8008 276.568 34.8008C277.037 34.8008 277.427 34.7422 277.74 34.625C278.052 34.5156 278.306 34.3359 278.502 34.0859C278.705 33.8359 278.877 33.5 279.017 33.0781L279.931 30.6172ZM277.986 19.3203L280.998 28.8125L281.502 31.7891L279.545 32.293L274.939 19.3203H277.986Z" fill="white"/>
</svg>
