<svg width="20" height="20" viewBox="0 0 20 20" fill="none" xmlns="http://www.w3.org/2000/svg">
<path fill-rule="evenodd" clip-rule="evenodd" d="M10 20C5.28595 20 2.92893 20 1.46447 18.5355C0 17.0711 0 14.714 0 10C0 5.28595 0 2.92893 1.46447 1.46447C2.92893 0 5.28595 0 10 0C14.714 0 17.0711 0 18.5355 1.46447C20 2.92893 20 5.28595 20 10C20 14.714 20 17.0711 18.5355 18.5355C17.0711 20 14.714 20 10 20ZM10 6.25C10.4142 6.25 10.75 6.58579 10.75 7V9.25002H13C13.4142 9.25002 13.75 9.58581 13.75 10C13.75 10.4142 13.4142 10.75 13 10.75H10.75L10.75 13C10.75 13.4142 10.4142 13.75 10 13.75C9.58578 13.75 9.25 13.4142 9.25 13V10.75H7C6.58579 10.75 6.25 10.4142 6.25 10C6.25 9.58581 6.58579 9.25002 7 9.25002H9.25L9.25 7C9.25 6.58579 9.58579 6.25 10 6.25Z" fill="#0058A4"/>
</svg>
