<svg width="152" height="40" viewBox="0 0 152 40" fill="none" xmlns="http://www.w3.org/2000/svg">
<path d="M0 20C0 16.2828 0 14.4241 0.307436 12.8786C1.56994 6.53151 6.53151 1.56994 12.8786 0.307436C14.4241 0 16.2828 0 20 0H132C135.717 0 137.576 0 139.121 0.307436C145.468 1.56994 150.43 6.53151 151.693 12.8786C152 14.4241 152 16.2828 152 20C152 23.7172 152 25.5759 151.693 27.1214C150.43 33.4685 145.468 38.4301 139.121 39.6926C137.576 40 135.717 40 132 40H20C16.2828 40 14.4241 40 12.8786 39.6926C6.53151 38.4301 1.56994 33.4685 0.307436 27.1214C0 25.5759 0 23.7172 0 20Z" fill="#0058A4"/>
<mask id="mask0_9_7352" style="mask-type:alpha" maskUnits="userSpaceOnUse" x="24" y="8" width="24" height="24">
<path d="M26.0842 10.7512C26.2215 10.3604 26.6497 10.155 27.0405 10.2924L27.3419 10.3984C27.9584 10.6151 28.482 10.7992 28.8941 11.0014C29.3347 11.2176 29.7126 11.4839 29.9968 11.8998C30.2788 12.3124 30.3952 12.7651 30.4489 13.2615C30.473 13.4837 30.4856 13.7297 30.4923 14H41.1305C42.8155 14 44.3323 14 44.7762 14.5771C45.2202 15.1542 45.0466 16.0237 44.6995 17.7628L44.1997 20.1875C43.8846 21.7164 43.727 22.4808 43.1753 22.9304C42.6236 23.38 41.8431 23.38 40.2821 23.38H34.9792C32.1903 23.38 30.7958 23.38 29.9294 22.4662C29.063 21.5523 28.9998 20.5816 28.9998 17.64L28.9998 15.0383C28.9998 14.2984 28.9988 13.8032 28.9576 13.423C28.9183 13.0596 28.8486 12.8782 28.7583 12.7461C28.6703 12.6172 28.5366 12.4968 28.2334 12.348C27.9105 12.1896 27.4718 12.0341 26.8042 11.7993L26.543 11.7075C26.1522 11.5701 25.9468 11.142 26.0842 10.7512Z" fill="#232323"/>
<path d="M31.5 26C32.3284 26 33 26.6716 33 27.5C33 28.3284 32.3284 29 31.5 29C30.6716 29 30 28.3284 30 27.5C30 26.6716 30.6716 26 31.5 26Z" fill="#232323"/>
<path d="M40.5 26.0001C41.3284 26.0001 42 26.6716 42 27.5001C42 28.3285 41.3284 29.0001 40.5 29.0001C39.6716 29.0001 39 28.3285 39 27.5001C39 26.6716 39.6716 26.0001 40.5 26.0001Z" fill="#232323"/>
</mask>
<g mask="url(#mask0_9_7352)">
<rect x="24" y="8" width="24" height="24" fill="white"/>
</g>
<path d="M59.9551 13.2031V26H57.7578V13.2031H59.9551ZM67.6543 13.2031L62.4512 20.498H59.3311L59.0322 18.582H61.2295L64.9561 13.2031H67.6543ZM65.4043 26L61.2646 20.1641L62.6885 18.4678L68.0498 26H65.4043ZM68.4541 21.3506V21.1484C68.4541 20.4629 68.5537 19.8271 68.7529 19.2412C68.9521 18.6494 69.2393 18.1367 69.6143 17.7031C69.9951 17.2637 70.458 16.9238 71.0029 16.6836C71.5537 16.4375 72.1748 16.3145 72.8662 16.3145C73.5635 16.3145 74.1846 16.4375 74.7295 16.6836C75.2803 16.9238 75.7461 17.2637 76.127 17.7031C76.5078 18.1367 76.7979 18.6494 76.9971 19.2412C77.1963 19.8271 77.2959 20.4629 77.2959 21.1484V21.3506C77.2959 22.0361 77.1963 22.6719 76.9971 23.2578C76.7979 23.8438 76.5078 24.3564 76.127 24.7959C75.7461 25.2295 75.2832 25.5693 74.7383 25.8154C74.1934 26.0557 73.5752 26.1758 72.8838 26.1758C72.1865 26.1758 71.5625 26.0557 71.0117 25.8154C70.4668 25.5693 70.0039 25.2295 69.623 24.7959C69.2422 24.3564 68.9521 23.8438 68.7529 23.2578C68.5537 22.6719 68.4541 22.0361 68.4541 21.3506ZM70.5723 21.1484V21.3506C70.5723 21.7783 70.6162 22.1826 70.7041 22.5635C70.792 22.9443 70.9297 23.2783 71.1172 23.5654C71.3047 23.8525 71.5449 24.0781 71.8379 24.2422C72.1309 24.4062 72.4795 24.4883 72.8838 24.4883C73.2764 24.4883 73.6162 24.4062 73.9033 24.2422C74.1963 24.0781 74.4365 23.8525 74.624 23.5654C74.8115 23.2783 74.9492 22.9443 75.0371 22.5635C75.1309 22.1826 75.1777 21.7783 75.1777 21.3506V21.1484C75.1777 20.7266 75.1309 20.3281 75.0371 19.9531C74.9492 19.5723 74.8086 19.2354 74.6152 18.9424C74.4277 18.6494 74.1875 18.4209 73.8945 18.2568C73.6074 18.0869 73.2646 18.002 72.8662 18.002C72.4678 18.002 72.1221 18.0869 71.8291 18.2568C71.542 18.4209 71.3047 18.6494 71.1172 18.9424C70.9297 19.2354 70.792 19.5723 70.7041 19.9531C70.6162 20.3281 70.5723 20.7266 70.5723 21.1484ZM81.1982 18.3184V29.6562H79.0801V16.4902H81.0312L81.1982 18.3184ZM87.3945 21.1572V21.3418C87.3945 22.0332 87.3125 22.6748 87.1484 23.2666C86.9902 23.8525 86.7529 24.3652 86.4365 24.8047C86.126 25.2383 85.7422 25.5752 85.2852 25.8154C84.8281 26.0557 84.3008 26.1758 83.7031 26.1758C83.1113 26.1758 82.5928 26.0674 82.1475 25.8506C81.708 25.6279 81.3359 25.3145 81.0312 24.9102C80.7266 24.5059 80.4805 24.0312 80.293 23.4863C80.1113 22.9355 79.9824 22.332 79.9062 21.6758V20.9639C79.9824 20.2666 80.1113 19.6338 80.293 19.0654C80.4805 18.4971 80.7266 18.0078 81.0312 17.5977C81.3359 17.1875 81.708 16.8711 82.1475 16.6484C82.5869 16.4258 83.0996 16.3145 83.6855 16.3145C84.2832 16.3145 84.8135 16.4316 85.2764 16.666C85.7393 16.8945 86.1289 17.2227 86.4453 17.6504C86.7617 18.0723 86.999 18.582 87.1572 19.1797C87.3154 19.7715 87.3945 20.4307 87.3945 21.1572ZM85.2764 21.3418V21.1572C85.2764 20.7178 85.2354 20.3105 85.1533 19.9355C85.0713 19.5547 84.9424 19.2207 84.7666 18.9336C84.5908 18.6465 84.3652 18.4238 84.0898 18.2656C83.8203 18.1016 83.4951 18.0195 83.1143 18.0195C82.7393 18.0195 82.417 18.084 82.1475 18.2129C81.8779 18.3359 81.6523 18.5088 81.4707 18.7314C81.2891 18.9541 81.1484 19.2148 81.0488 19.5137C80.9492 19.8066 80.8789 20.126 80.8379 20.4717V22.1768C80.9082 22.5986 81.0283 22.9854 81.1982 23.3369C81.3682 23.6885 81.6084 23.9697 81.9189 24.1807C82.2354 24.3857 82.6396 24.4883 83.1318 24.4883C83.5127 24.4883 83.8379 24.4062 84.1074 24.2422C84.377 24.0781 84.5967 23.8525 84.7666 23.5654C84.9424 23.2725 85.0713 22.9355 85.1533 22.5547C85.2354 22.1738 85.2764 21.7695 85.2764 21.3418ZM93.1338 21.4561H91.3057V20.3838H92.7822C93.1572 20.3838 93.4561 20.334 93.6787 20.2344C93.9072 20.1348 94.0684 19.9971 94.1621 19.8213C94.2617 19.6396 94.3115 19.4287 94.3115 19.1885C94.3115 18.9775 94.2617 18.7783 94.1621 18.5908C94.0684 18.3975 93.9072 18.2393 93.6787 18.1162C93.4502 17.9932 93.1396 17.9316 92.7471 17.9316C92.4248 17.9316 92.1348 17.9844 91.877 18.0898C91.625 18.1953 91.4258 18.3418 91.2793 18.5293C91.1328 18.7168 91.0596 18.9336 91.0596 19.1797H88.9414C88.9414 18.5879 89.1084 18.0781 89.4424 17.6504C89.7822 17.2227 90.2363 16.8945 90.8047 16.666C91.373 16.4375 91.9971 16.3232 92.6768 16.3232C93.2568 16.3232 93.7783 16.3848 94.2412 16.5078C94.7041 16.625 95.0967 16.8008 95.4189 17.0352C95.7471 17.2637 95.9961 17.5508 96.166 17.8965C96.3418 18.2363 96.4297 18.6318 96.4297 19.083C96.4297 19.4053 96.3535 19.71 96.2012 19.9971C96.0488 20.2842 95.8291 20.5391 95.542 20.7617C95.2549 20.9785 94.9062 21.1484 94.4961 21.2715C94.0918 21.3945 93.6377 21.4561 93.1338 21.4561ZM91.3057 20.8408H93.1338C93.6963 20.8408 94.1943 20.8965 94.6279 21.0078C95.0615 21.1133 95.4248 21.2715 95.7178 21.4824C96.0107 21.6934 96.2305 21.9541 96.377 22.2646C96.5293 22.5693 96.6055 22.9209 96.6055 23.3193C96.6055 23.7646 96.5088 24.166 96.3154 24.5234C96.1279 24.875 95.8584 25.1738 95.5068 25.4199C95.1611 25.666 94.748 25.8535 94.2676 25.9824C93.7871 26.1113 93.2568 26.1758 92.6768 26.1758C92.0439 26.1758 91.4287 26.0703 90.8311 25.8594C90.2393 25.6484 89.75 25.3232 89.3633 24.8838C88.9824 24.4385 88.792 23.873 88.792 23.1875H90.9102C90.9102 23.4277 90.9834 23.6533 91.1299 23.8643C91.2764 24.0752 91.4873 24.248 91.7627 24.3828C92.0381 24.5117 92.3691 24.5762 92.7559 24.5762C93.1543 24.5762 93.4795 24.5146 93.7314 24.3916C93.9834 24.2627 94.1709 24.0957 94.2939 23.8906C94.417 23.6797 94.4785 23.457 94.4785 23.2227C94.4785 22.9062 94.417 22.6514 94.2939 22.458C94.1709 22.2646 93.9834 22.124 93.7314 22.0361C93.4795 21.9424 93.1631 21.8955 92.7822 21.8955H91.3057V20.8408ZM100.596 22.9062L104.331 16.4902H106.449V26H104.331V19.5752L100.596 26H98.4775V16.4902H100.596V22.9062ZM115.186 20.4629V22.1328H110.264V20.4629H115.186ZM110.879 16.4902V26H108.761V16.4902H110.879ZM116.715 16.4902V26H114.597V16.4902H116.715ZM124.335 24.0928V19.5576C124.335 19.2178 124.273 18.9248 124.15 18.6787C124.027 18.4326 123.84 18.2422 123.588 18.1074C123.342 17.9727 123.031 17.9053 122.656 17.9053C122.311 17.9053 122.012 17.9639 121.76 18.0811C121.508 18.1982 121.312 18.3564 121.171 18.5557C121.03 18.7549 120.96 18.9805 120.96 19.2324H118.851C118.851 18.8574 118.941 18.4941 119.123 18.1426C119.305 17.791 119.568 17.4775 119.914 17.2021C120.26 16.9268 120.673 16.71 121.153 16.5518C121.634 16.3936 122.173 16.3145 122.771 16.3145C123.485 16.3145 124.118 16.4346 124.669 16.6748C125.226 16.915 125.662 17.2783 125.979 17.7646C126.301 18.2451 126.462 18.8486 126.462 19.5752V23.8027C126.462 24.2363 126.491 24.626 126.55 24.9717C126.614 25.3115 126.705 25.6074 126.822 25.8594V26H124.651C124.552 25.7715 124.473 25.4814 124.414 25.1299C124.361 24.7725 124.335 24.4268 124.335 24.0928ZM124.643 20.2168L124.66 21.5264H123.14C122.747 21.5264 122.401 21.5645 122.103 21.6406C121.804 21.7109 121.555 21.8164 121.355 21.957C121.156 22.0977 121.007 22.2676 120.907 22.4668C120.808 22.666 120.758 22.8916 120.758 23.1436C120.758 23.3955 120.816 23.627 120.934 23.8379C121.051 24.043 121.221 24.2041 121.443 24.3213C121.672 24.4385 121.947 24.4971 122.27 24.4971C122.703 24.4971 123.081 24.4092 123.403 24.2334C123.731 24.0518 123.989 23.832 124.177 23.5742C124.364 23.3105 124.464 23.0615 124.476 22.8271L125.161 23.7676C125.091 24.0078 124.971 24.2656 124.801 24.541C124.631 24.8164 124.408 25.0801 124.133 25.332C123.863 25.5781 123.538 25.7803 123.157 25.9385C122.782 26.0967 122.349 26.1758 121.856 26.1758C121.235 26.1758 120.682 26.0527 120.195 25.8066C119.709 25.5547 119.328 25.2178 119.053 24.7959C118.777 24.3682 118.64 23.8848 118.64 23.3457C118.64 22.8418 118.733 22.3965 118.921 22.0098C119.114 21.6172 119.396 21.2891 119.765 21.0254C120.14 20.7617 120.597 20.5625 121.136 20.4277C121.675 20.2871 122.29 20.2168 122.981 20.2168H124.643Z" fill="white"/>
</svg>
