<svg width="307" height="42" viewBox="0 0 307 42" fill="none" xmlns="http://www.w3.org/2000/svg">
<path fill-rule="evenodd" clip-rule="evenodd" d="M64.7846 13.1266V31.3673H58.676V13.1266H52.2277V10.454H71.2324V13.1266H64.7846ZM87.8999 27.5495C87.8999 28.3982 87.4757 28.6951 86.797 28.6951H80.5611C79.8827 28.6951 79.4582 28.3982 79.4582 27.5495V14.2722C79.4582 13.4239 79.8827 13.1266 80.5611 13.1266H86.797C87.4757 13.1266 87.8999 13.4239 87.8999 14.2722V27.5495ZM94.0085 27.2527V14.5691C94.0085 12.0237 92.7365 10.454 89.8938 10.454H77.4642C74.6224 10.454 73.3495 12.0237 73.3495 14.5691V27.2527C73.3495 29.798 74.6224 31.3673 77.4642 31.3673H89.8938C92.7365 31.3673 94.0085 29.798 94.0085 27.2527ZM118.334 31.3673V13.4662H118.292L111.322 31.3673H107.08L100.038 13.4662H99.9952V31.3673H97.1953V10.454H105.001L110.982 25.641L116.892 10.454H124.452V31.3673H118.334ZM131.797 31.3673C128.996 31.3673 127.681 29.798 127.681 27.2527V14.5691C127.681 12.0237 128.996 10.454 131.797 10.454H144.523V13.1266H134.936C134.257 13.1266 133.79 13.4239 133.79 14.2722V27.5495C133.79 28.3982 134.257 28.6951 134.936 28.6951H144.523V31.3673H131.797ZM162.09 31.3673L157.111 21.2833L153.818 24.5558V31.3673H147.709V10.4544H153.818V20.4231L163.745 10.4544H168.007L161.391 17.029L168.963 31.3673H162.09Z" fill="#0058A4"/>
<path fill-rule="evenodd" clip-rule="evenodd" d="M186.324 31.3673L181.344 21.2833L178.051 24.5558V31.3673H171.943V10.4544H178.051V20.4231L187.978 10.4544H192.24L185.625 17.029L193.196 31.3673H186.324ZM208.077 22.7138H201.035L204.514 14.7813L208.077 22.7138ZM218.513 31.3673L209.01 10.454H203.623L194.248 31.3673H197.217L199.805 25.3865H209.307L211.895 31.3673H218.513ZM243.487 31.3673V10.454H260.753V13.1266H249.638V19.4475H259.734V22.1197H249.638V28.6951H260.753V31.3673H243.487ZM270.386 10.454H275.986L284.131 31.3673H277.641L271.447 14.9086L265.466 31.3673H262.412L270.386 10.454ZM300.262 26.9562C300.262 28.271 299.923 28.6951 298.735 28.6951H291.82V20.5081H298.735C299.923 20.5081 300.262 20.9322 300.262 22.247V26.9562ZM301.365 17.8354H291.82V10.454H285.712V31.3673H301.365C304.589 31.3673 306.201 29.9676 306.201 27.2104V21.9924C306.201 19.2352 304.589 17.8354 301.365 17.8354ZM236.227 19.4487L226.212 19.4475V13.1295H237.368V10.454H220.103V31.3673H236.308C239.066 31.3673 240.38 29.6707 240.38 27.5072V23.3503C240.38 21.1441 238.984 19.4487 236.227 19.4487ZM234.442 27.3377C234.442 28.2287 234.187 28.6951 233.338 28.6951H226.212V22.1624H233.338C234.187 22.1624 234.442 22.6288 234.442 23.5198V27.3377Z" fill="#BEBFC7"/>
<path fill-rule="evenodd" clip-rule="evenodd" d="M0 15.7292L15.7295 0H0V15.7292ZM0 41.8275V26.0983L15.7295 41.8275H0Z" fill="#0058A4"/>
<path fill-rule="evenodd" clip-rule="evenodd" d="M40.0725 17.7139V0H22.4154L1.44391 20.9137L22.4154 41.8275H40.0725V24.114L33.2153 30.9707L23.1011 20.9137L33.2153 10.8568L40.0725 17.7139ZM15.3866 20.9137L29.3293 34.8567L26.5868 37.5991L9.90091 20.9137L26.5868 4.2284L29.3293 6.9712L15.3866 20.9137Z" fill="#BEBFC7"/>
</svg>
